<svg width="20" height="18" viewBox="0 0 20 18" fill="none" xmlns="http://www.w3.org/2000/svg">
<path id="icon" d="M14.6431 0.304352C17.6016 0.304352 20 2.7252 20 5.71147C20 5.76791 19.9991 5.82414 19.9974 5.88017C20.0837 9.00946 16.7512 12.948 10.0004 17.6957C3.18278 13.0624 -0.148971 9.14266 0.00510791 5.93635C0.00225003 5.86187 0.000721783 5.78685 0.000721783 5.71147C0.000721783 2.7252 2.39911 0.304352 5.35767 0.304352C7.34223 0.304352 9.07473 1.39361 10.0004 3.01213C10.926 1.39361 12.6585 0.304352 14.6431 0.304352ZM14.6431 1.63241C13.2108 1.63241 11.9057 2.40969 11.1916 3.65837C10.9333 4.10555 10.7395 4.44209 10.6103 4.66799H9.38522C9.2572 4.44414 9.06516 4.1076 8.80912 3.65838C8.09498 2.40969 6.78994 1.63241 5.35767 1.63241C3.16331 1.63241 1.36431 3.44826 1.36431 5.71147C1.36431 5.76883 1.36546 5.82726 1.36774 5.88675L1.36989 5.94261L1.3672 5.99844C1.24871 8.46431 4.02224 11.8576 9.83721 15.9539L9.98704 16.0591L10.1382 15.9495C15.8493 11.7948 18.6417 8.39976 18.6355 5.9923L18.6343 5.91581L18.6333 5.87836L18.6345 5.84091C18.6358 5.79787 18.6364 5.75472 18.6364 5.71147C18.6364 3.44826 16.8374 1.63241 14.6431 1.63241Z" fill="#37363B"/>
</svg>
