<svg width="18" height="18" viewBox="0 0 18 18" fill="none" xmlns="http://www.w3.org/2000/svg">
<g id="icon">
<path id="Union" fill-rule="evenodd" clip-rule="evenodd" d="M9.5144 17.9438C14.2175 17.6766 17.9584 13.7691 17.9584 9.00002C17.9584 4.05835 13.9417 0.041687 9.00008 0.041687C4.05841 0.041687 0.041748 4.05835 0.041748 9.00002C0.041748 13.8431 3.89975 17.7977 8.70545 17.9536C8.80367 17.9568 8.90211 17.9584 9.00075 17.9584C9.17261 17.9584 9.34389 17.9535 9.5144 17.9438ZM14.8901 13.9671C16.0241 12.6246 16.7084 10.8906 16.7084 9.00002C16.7084 4.75002 13.2501 1.29169 9.00008 1.29169C4.75008 1.29169 1.29175 4.75002 1.29175 9.00002C1.29175 10.8907 1.97614 12.6246 3.11015 13.9672C3.40873 13.4089 3.88265 12.901 4.50909 12.4834C6.99242 10.8334 11.0174 10.8334 13.4924 12.4834C14.118 12.9055 14.5914 13.4115 14.8901 13.9671ZM8.76091 16.7047C8.84034 16.7071 8.92007 16.7084 9.00008 16.7084C9.13006 16.7084 9.2593 16.7051 9.38773 16.6987C11.0564 16.6151 12.6497 15.9922 13.9341 14.9167C13.7841 14.4084 13.3841 13.9167 12.7924 13.5167C10.7424 12.1501 7.26743 12.1501 5.20076 13.5167C4.60909 13.9167 4.21743 14.4084 4.06743 14.9167C5.38949 16.0238 7.03886 16.6513 8.76091 16.7047ZM9.10042 10.275H9.04208H8.95875C7.06706 10.2167 5.65039 8.74167 5.65039 6.92498C5.65039 5.07498 7.15872 3.56665 9.00875 3.56665C10.8587 3.56665 12.3671 5.07498 12.3671 6.92498C12.3587 8.75 10.9337 10.2167 9.12542 10.275H9.10042ZM9.00041 4.80832C7.83375 4.80832 6.89206 5.75832 6.89206 6.91665C6.89206 8.05833 7.78375 8.98333 8.91708 9.025C8.94208 9.01667 9.02542 9.01667 9.10875 9.025C10.2254 8.96667 11.1004 8.05 11.1087 6.91665C11.1087 5.75832 10.1671 4.80832 9.00041 4.80832Z" fill="#37363B"/>
</g>
</svg>
