<svg width="20" height="20" viewBox="0 0 20 20" fill="none" xmlns="http://www.w3.org/2000/svg">
<path id="Union" fill-rule="evenodd" clip-rule="evenodd" d="M10.68 19.9771C15.88 19.6266 19.9999 15.2877 19.9999 9.99995C19.9999 4.4837 15.5162 0 9.99995 0C4.4837 0 0 4.4837 0 9.99995C0 15.3753 4.25753 19.7701 9.57924 19.9912C9.71932 19.9971 9.85983 20 10.0007 20C10.2282 20 10.4547 19.9923 10.68 19.9771ZM16.5748 15.5446C17.8406 14.0459 18.6046 12.1104 18.6046 9.99995C18.6046 5.25579 14.7441 1.39534 9.99995 1.39534C5.25579 1.39534 1.39534 5.25579 1.39534 9.99995C1.39534 12.1104 2.15931 14.046 3.42519 15.5446C3.75848 14.9215 4.2875 14.3546 4.98678 13.8884C7.75886 12.0465 12.2519 12.0465 15.0146 13.8884C15.7129 14.3596 16.2414 14.9243 16.5748 15.5446ZM9.66317 18.5981C9.77491 18.6024 9.88718 18.6046 9.99995 18.6046C10.1728 18.6046 10.3445 18.5994 10.5149 18.5893C12.3477 18.4799 14.0951 17.7875 15.5077 16.6047C15.3402 16.0372 14.8937 15.4884 14.2332 15.0419C11.9449 13.5163 8.06584 13.5163 5.75887 15.0419C5.09841 15.4884 4.6612 16.0372 4.49376 16.6047C5.95168 17.8255 7.76616 18.5238 9.66317 18.5981ZM10.112 11.4232H10.0469H9.95391C7.84226 11.3581 6.26087 9.71158 6.26087 7.68367C6.26087 5.61856 7.94459 3.93485 10.0097 3.93485C12.0748 3.93485 13.7585 5.61856 13.7585 7.68367C13.7492 9.72089 12.1585 11.3581 10.14 11.4232H10.112ZM10.0004 5.32089C8.6981 5.32089 7.64691 6.38135 7.64691 7.67437C7.64691 8.9488 8.64228 9.98135 9.9074 10.0279C9.9353 10.0186 10.0283 10.0186 10.1213 10.0279C11.3679 9.96274 12.3446 8.93949 12.3539 7.67437C12.3539 6.38135 11.3027 5.32089 10.0004 5.32089Z" fill="#F3E0CF"/>
</svg>
