<svg width="20" height="20" viewBox="0 0 20 20" fill="none" xmlns="http://www.w3.org/2000/svg">
<path id="Vector" d="M15.0883 20C14.0372 20 12.9302 19.7488 11.786 19.2651C10.6697 18.7907 9.54414 18.1395 8.44646 17.3488C7.35809 16.5488 6.30693 15.6558 5.31158 14.6791C4.32553 13.6837 3.43251 12.6326 2.64181 11.5535C1.84181 10.4372 1.19995 9.32093 0.744136 8.24186C0.260415 7.08837 0.0185547 5.97209 0.0185547 4.92093C0.0185547 4.19535 0.148787 3.50698 0.39995 2.86512C0.660415 2.20465 1.07902 1.5907 1.64646 1.06047C2.36274 0.353488 3.18135 0 4.05576 0C4.41855 0 4.79065 0.0837209 5.10693 0.232558C5.46972 0.4 5.77669 0.651163 5.99995 0.986046L8.15809 4.02791C8.35344 4.29767 8.50227 4.55814 8.6046 4.8186C8.72553 5.09767 8.79065 5.37674 8.79065 5.64651C8.79065 6 8.68832 6.34419 8.49297 6.66977C8.35344 6.92093 8.13948 7.1907 7.86972 7.46047L7.23716 8.12093C7.24646 8.14884 7.25576 8.16744 7.26507 8.18605C7.37669 8.3814 7.59995 8.71628 8.02786 9.21861C8.48367 9.73954 8.91158 10.214 9.33949 10.6512C9.88832 11.1907 10.3441 11.6186 10.772 11.9721C11.3023 12.4186 11.6465 12.6419 11.8511 12.7442L11.8325 12.7907L12.5116 12.1209C12.7999 11.8326 13.079 11.6186 13.3488 11.4791C13.8604 11.1628 14.5116 11.107 15.1627 11.3767C15.4046 11.4791 15.6651 11.6186 15.9441 11.814L19.0325 14.0093C19.3767 14.2419 19.6279 14.5395 19.7767 14.893C19.9162 15.2465 19.9813 15.5721 19.9813 15.8977C19.9813 16.3442 19.879 16.7907 19.6837 17.2093C19.4883 17.6279 19.2465 17.9907 18.9395 18.3256C18.4093 18.9116 17.8325 19.3302 17.1627 19.6C16.5209 19.8605 15.8232 20 15.0883 20ZM4.05576 1.39535C3.54414 1.39535 3.06972 1.6186 2.6139 2.06512C2.186 2.46512 1.88832 2.90233 1.70228 3.37674C1.50693 3.86047 1.4139 4.37209 1.4139 4.92093C1.4139 5.78605 1.61855 6.72558 2.02786 7.69302C2.44646 8.67907 3.03251 9.70233 3.77669 10.7256C4.52088 11.7488 5.36739 12.7442 6.29762 13.6837C7.22786 14.6047 8.23251 15.4605 9.26507 16.214C10.2697 16.9488 11.3023 17.5442 12.3255 17.9721C13.9162 18.6512 15.4046 18.8093 16.6325 18.2977C17.1069 18.1023 17.5255 17.8047 17.9069 17.3767C18.1209 17.1442 18.2883 16.893 18.4279 16.5954C18.5395 16.3628 18.5953 16.1209 18.5953 15.8791C18.5953 15.7302 18.5674 15.5814 18.493 15.414C18.4651 15.3581 18.4093 15.2558 18.2325 15.1349L15.1441 12.9395C14.9581 12.8093 14.7906 12.7163 14.6325 12.6512C14.4279 12.5674 14.3441 12.4837 14.0279 12.6791C13.8418 12.7721 13.6744 12.9116 13.4883 13.0977L12.7813 13.7953C12.4186 14.1488 11.8604 14.2326 11.4325 14.0744L11.1813 13.9628C10.7999 13.7581 10.3534 13.4419 9.86041 13.0233C9.4139 12.6419 8.93018 12.1953 8.34414 11.6186C7.88832 11.1535 7.43251 10.6605 6.95809 10.1116C6.52088 9.6 6.2046 9.16279 6.00925 8.8L5.89762 8.52093C5.84181 8.30698 5.82321 8.18605 5.82321 8.05581C5.82321 7.72093 5.94414 7.42326 6.17669 7.1907L6.87437 6.46512C7.06041 6.27907 7.19995 6.10233 7.29297 5.94419C7.36739 5.82326 7.3953 5.72093 7.3953 5.62791C7.3953 5.55349 7.36739 5.44186 7.32088 5.33023C7.25576 5.1814 7.15344 5.01395 7.02321 4.83721L4.86507 1.78605C4.77204 1.65581 4.66042 1.56279 4.52088 1.49767C4.37204 1.43256 4.2139 1.39535 4.05576 1.39535ZM11.8325 12.8L11.6837 13.4326L11.9348 12.7814C11.8883 12.7721 11.8511 12.7814 11.8325 12.8Z" fill="#292D32"/>
</svg>
