<svg width="16.3" height="16.3" viewBox="0 0 16.3 16.3" fill="none" xmlns="http://www.w3.org/2000/svg">
<g id="icon">
<path id="icon_2" fill-rule="evenodd" clip-rule="evenodd" d="M14.5883 14.1008L14.6089 14.0803C14.6417 14.0475 14.6806 14.0044 14.7396 13.9372L14.7439 13.9323C15.0911 13.541 15.1637 13.2473 15.1637 13.0961C15.1637 13.0081 15.1475 12.7762 14.6098 12.4026L12.1658 10.7078C12.1654 10.7075 12.165 10.7072 12.1646 10.7069C11.9363 10.5499 11.7639 10.5146 11.6646 10.5166C11.5876 10.5181 11.4827 10.5405 11.3424 10.6791C11.342 10.6796 11.3416 10.68 11.3411 10.6805L10.7337 11.2881C10.7334 11.2885 10.7331 11.2888 10.7327 11.2891C10.5104 11.5122 10.1563 11.7704 9.66467 11.8107C9.18509 11.85 8.80384 11.6631 8.55621 11.4911C8.01022 11.1259 7.1109 10.3313 6.51886 9.7421C5.90142 9.13262 5.24568 8.39272 4.85103 7.7936L4.84512 7.78462C4.69354 7.54995 4.50916 7.17154 4.55101 6.69378C4.59361 6.20741 4.84864 5.8586 5.06711 5.63886L5.68081 5.0211C5.82307 4.88001 5.84515 4.77482 5.84683 4.70051C5.849 4.60463 5.81503 4.43704 5.66073 4.21699L5.66013 4.21613L3.92662 1.73926C3.92654 1.73915 3.9267 1.73938 3.92662 1.73926C3.58352 1.24997 3.32793 1.20142 3.20438 1.20007L3.20226 1.20005C3.05176 1.19813 2.77615 1.26037 2.38289 1.6046C2.34346 1.63938 2.30613 1.67175 2.2741 1.69951L2.27155 1.70172C2.24239 1.72699 2.21876 1.74747 2.19725 1.76639C1.81199 2.12002 1.58104 2.44437 1.43622 2.78784C1.28821 3.13889 1.2 3.58168 1.2 4.21123C1.2 6.18905 2.37335 8.7561 4.98503 11.3487C7.58459 13.9278 10.1345 15.103 12.1651 15.103C12.7725 15.103 13.2111 15.0164 13.5613 14.8698C13.9059 14.7255 14.2285 14.4966 14.5688 14.1224L14.5883 14.1008ZM1.3953 0.873626C1.42314 0.849056 1.45265 0.823478 1.48361 0.796644C1.51762 0.767174 1.55338 0.736188 1.59057 0.70336C2.13573 0.225574 2.68747 -0.00658988 3.2175 0.000142266C3.83339 0.00687441 4.41261 0.341982 4.90924 1.05045L6.64326 3.52805C7.17837 4.29119 7.22266 5.18208 6.52584 5.87316L5.91843 6.48458C5.70408 6.7 5.69587 6.88998 5.85316 7.13349C6.18213 7.6329 6.77241 8.30639 7.3636 8.8898C7.94264 9.46627 8.78735 10.2048 9.23304 10.5001C9.47021 10.6682 9.66877 10.6571 9.88312 10.4417L10.4957 9.8288C11.1881 9.1415 12.074 9.18711 12.8468 9.71972L15.2936 11.4165C16.0286 11.9269 16.3637 12.4828 16.3637 13.0961C16.3637 13.6207 16.123 14.1861 15.6414 14.7288C15.5838 14.7945 15.5209 14.8654 15.4567 14.9296C14.583 15.8906 13.609 16.303 12.1651 16.303C9.69509 16.303 6.8586 14.8979 4.13986 12.2006C1.40617 9.48694 0 6.63156 0 4.21123C0 2.72747 0.416192 1.76862 1.3953 0.873626Z" fill="#37363B"/>
</g>
</svg>
