<svg width="20" height="20" viewBox="0 0 20 20" fill="none" xmlns="http://www.w3.org/2000/svg">
<g id="icon_location">
<path id="Union" fill-rule="evenodd" clip-rule="evenodd" d="M9.9999 2.2C6.46528 2.2 3.5999 5.06538 3.5999 8.6C3.60015 11.3641 5.21759 13.7188 6.92454 15.4257C7.77041 16.2716 8.61834 16.938 9.25528 17.393C9.56181 17.612 9.81821 17.781 10.0003 17.8967C10.1823 17.781 10.4387 17.612 10.7452 17.393C11.3822 16.938 12.2301 16.2716 13.0759 15.4257C14.7827 13.7188 16.4 11.364 16.3999 8.6C16.3999 5.06538 13.5345 2.2 9.9999 2.2ZM9.9999 1C14.1973 1 17.5999 4.40264 17.5999 8.6C17.6 11.8359 15.7174 14.4812 13.9244 16.2742C13.0203 17.1784 12.1183 17.8869 11.4427 18.3695C11.1044 18.6111 10.8216 18.7971 10.6218 18.9234C10.5219 18.9867 10.4427 19.035 10.3876 19.0681C10.36 19.0846 10.3385 19.0973 10.3234 19.1062L10.3057 19.1165L10.3005 19.1195L10.298 19.1209L10.0003 19.2911L9.70257 19.1209L10.0003 18.6C9.70257 19.1209 9.70159 19.1204 9.70159 19.1204L9.69997 19.1195L9.69484 19.1165L9.67711 19.1062C9.66203 19.0973 9.6405 19.0846 9.61295 19.0681C9.55784 19.035 9.47861 18.9867 9.3787 18.9234C9.17894 18.7971 8.89608 18.6111 8.55778 18.3695C7.88224 17.8869 6.98018 17.1784 6.07602 16.2743C4.28293 14.4812 2.40019 11.8359 2.3999 8.6C2.3999 4.40264 5.80254 1 9.9999 1ZM10 6.5C11.0969 6.5 12 7.39343 12 8.50129C12 9.60657 11.0969 10.5 10 10.5C8.89147 10.5 8 9.60657 8 8.50129C8 7.39343 8.89147 6.5 10 6.5Z" fill="#92877C"/>
</g>
</svg>
