<svg width="20" height="18" viewBox="0 0 20 18" fill="none" xmlns="http://www.w3.org/2000/svg">
<g id="icon_heart">
<path id="icon" d="M14.3334 0.818176C17.0948 0.818176 19.3334 3.13816 19.3334 5.99999C19.3334 6.05408 19.3326 6.10798 19.331 6.16167C19.4115 9.16057 16.3011 12.935 10 17.4848C3.63672 13.0447 0.526971 9.28823 0.670783 6.21551C0.668116 6.14413 0.666689 6.07223 0.666689 5.99999C0.666689 3.13816 2.90527 0.818176 5.66669 0.818176C7.51901 0.818176 9.13607 1.86205 10 3.41313C10.864 1.86205 12.481 0.818176 14.3334 0.818176ZM14.3334 2.0909C12.9965 2.0909 11.7784 2.83579 11.1119 4.03244C10.8708 4.46099 10.6899 4.7835 10.5693 4.99999H9.42587C9.30638 4.78547 9.12714 4.46296 8.88816 4.03246C8.2216 2.83579 7.00352 2.0909 5.66669 2.0909C3.61855 2.0909 1.93942 3.83109 1.93942 5.99999C1.93942 6.05497 1.94049 6.11097 1.94262 6.16798L1.94462 6.2215L1.94212 6.27501C1.83152 8.63814 4.42024 11.89 9.84774 15.8157L9.98759 15.9165L10.1287 15.8115C15.4592 11.8298 18.0656 8.57627 18.0598 6.26913L18.0587 6.19582L18.0577 6.15993L18.0588 6.12405C18.06 6.0828 18.0606 6.04144 18.0606 5.99999C18.0606 3.83109 16.3815 2.0909 14.3334 2.0909Z" fill="#37363B"/>
</g>
</svg>
