<svg width="118" height="36" viewBox="0 0 118 36" fill="none" xmlns="http://www.w3.org/2000/svg">
<path fill-rule="evenodd" clip-rule="evenodd" d="M7.66211 7.20001H11.7435C12.5138 12.4441 13.007 15.6423 13.223 16.7947L16.2881 16.7982L17.8655 7.20001H21.9469L19.3873 22.9704C18.7893 26.2736 17.3461 28.1059 13.8352 28.7001C13.2141 28.78 12.5679 28.8119 11.8965 28.7961H11.4503L10.7104 24.9568H10.9004C14.5529 24.9566 14.9101 24.937 15.4255 22.048L15.6572 20.6375L9.90686 20.6376C9.83884 20.3176 9.59102 19.0417 9.16342 16.8099C8.73581 14.578 8.23537 11.3747 7.66211 7.20001ZM28.6219 7.20001H24.5193V28.8H28.6219V20.64H31.6989C31.7237 20.7128 31.752 20.7879 31.7811 20.8651C31.8218 20.9733 31.8641 21.0855 31.9005 21.2015C32.5843 23.3775 33.0983 25.9103 33.4426 28.8H37.5452C37.0984 25.2063 36.6015 22.4975 36.0545 20.6735C35.8206 19.8936 35.6117 19.1525 35.4944 18.72L35.5045 18.6687C35.6725 17.817 35.807 17.1263 35.9086 16.5968C36.3194 14.4572 36.8315 11.3249 37.4449 7.20001H33.2809C32.6507 11.3787 32.1367 14.511 31.7389 16.5968L31.7 16.8006L31.6989 16.8H28.6219V7.20001ZM48.0671 7.20001H52.6425C52.9781 9.33339 53.3266 12.4531 53.688 16.559C54.0495 20.665 54.3241 24.7453 54.5118 28.8L50.4337 28.8C50.1421 23.736 49.8601 19.6564 49.5877 16.5612C49.4265 14.7296 49.2386 12.8892 49.0241 11.04L48.5769 11.04L48.418 11.04C45.875 11.0413 45.8684 11.1036 45.5424 14.2192C45.3904 15.7797 45.2322 17.62 45.0678 19.7399C44.9034 21.8598 44.7052 24.8798 44.4732 28.8H40.3912C40.5838 25.1505 40.7643 22.2462 40.9327 20.0869C41.101 17.9276 41.2776 15.7737 41.4624 13.625C41.7851 9.21427 43.3772 7.20001 48.0671 7.20001ZM69.4941 7.20001H59.2875C58.8706 9.31776 58.4815 12.4296 58.1201 16.5356C57.7587 20.6415 57.4681 24.7297 57.2484 28.8H61.3266C61.5231 25.7148 61.7101 22.9955 61.8878 20.6424L66.8784 20.6425C66.9639 21.8321 67.1561 24.5513 67.455 28.8H71.5332C71.3135 24.7297 71.0229 20.6415 70.6615 16.5356C70.3 12.4296 69.9109 9.31776 69.4941 7.20001ZM78.2956 7.20001H88.5351C88.9533 9.31919 89.3437 12.4331 89.7063 16.5419C89.955 19.3603 90.1703 22.1703 90.3521 24.972L92.6154 24.972C92.7176 26.2528 92.7688 27.5337 92.7688 28.8146C92.7688 30.0954 92.7176 31.3763 92.6154 32.6572H88.524C88.6263 31.3763 88.6774 30.0954 88.6774 28.8146H78.1422C78.1422 30.0954 78.1933 31.3763 78.2956 32.6572H74.2042C74.1019 31.3763 74.0508 30.0954 74.0508 28.8146C74.0508 27.5337 74.1019 26.2528 74.2042 24.972L76.4786 24.972C76.6604 22.1703 76.8757 19.3603 77.1244 16.5419C77.487 12.4331 77.8774 9.31919 78.2956 7.20001ZM93.0424 7.20001H100.18C100.52 9.43018 100.69 12.5662 100.69 16.608L100.69 16.8012L105.109 16.8012L109.21 16.799C109.572 20.905 109.893 24.9053 110.173 28.8H106.094C105.71 24.4335 105.481 21.7135 105.406 20.64L100.634 20.64C100.559 23.3501 100.407 26.0701 100.18 28.8H96.1015C96.4414 23.8302 96.6114 19.7662 96.6114 16.608C96.6114 14.745 96.5522 12.8898 96.4339 11.0422L93.0424 11.04V7.20001ZM80.6732 24.9429C80.9192 21.6088 81.1421 18.8083 81.3422 16.5414C81.503 14.7194 81.7018 12.8913 81.9388 11.0572L84.9857 11.0572C85.0448 11.5348 85.1016 11.9902 85.1557 12.4235C85.3706 14.1443 85.5417 15.5151 85.6323 16.5414L85.6553 16.8042C85.6681 16.9515 85.6887 17.1956 85.7171 17.5363L85.8045 18.654C85.8582 19.3767 85.9066 20.0374 85.9497 20.636C86.0058 21.4147 86.1078 22.8503 86.2558 24.9429H80.7243H80.6732ZM62.2518 16.5538L62.2289 16.8159L62.28 16.8159L66.6074 16.8172L66.5844 16.5538C66.4712 15.2662 66.283 13.4378 65.99 11.0572L62.8472 11.0572C62.6107 12.8954 62.4123 14.7276 62.2518 16.5538Z" fill="#F3E0CF"/>
</svg>
