<svg width="95" height="25" viewBox="0 0 95 25" fill="none" xmlns="http://www.w3.org/2000/svg">
<path id="logo_full" fill-rule="evenodd" clip-rule="evenodd" d="M0 0H3.78232C4.49624 5.14993 4.95327 8.29072 5.15341 9.42236L7.99398 9.42587L9.4558 0H13.2381L10.866 15.4872C10.3119 18.7311 8.97444 20.5304 5.72076 21.114C5.14516 21.1924 4.5463 21.2238 3.92416 21.2082H3.51063L2.82496 17.4379H3.00104C6.38588 17.4378 6.71688 17.4185 7.19453 14.5813L7.40928 13.1962L2.08028 13.1962C2.01724 12.882 1.78758 11.6291 1.3913 9.43729C0.995029 7.24552 0.531261 4.09976 0 0ZM19.4241 0H15.622V21.2121H19.4241V13.1987H22.2756C22.2986 13.2702 22.3248 13.3439 22.3517 13.4197C22.3895 13.5259 22.4287 13.6362 22.4625 13.7501C23.0961 15.887 23.5725 18.3743 23.8915 21.2121H27.6935C27.2795 17.683 26.819 15.0228 26.312 13.2315C26.0953 12.4656 25.9017 11.7379 25.793 11.3131L25.8024 11.2628C25.9581 10.4264 26.0827 9.74806 26.1769 9.22804C26.5576 7.12683 27.0322 4.05082 27.6006 0H23.7417C23.1576 4.10366 22.6813 7.17967 22.3127 9.22804L22.2767 9.42818L22.2756 9.42761H19.4241V0ZM37.4445 0H41.6846C41.9956 2.09507 42.3186 5.15872 42.6536 9.19094C42.9885 13.2232 43.243 17.2302 43.417 21.2121L39.6376 21.2121C39.3674 16.239 39.1061 12.2327 38.8536 9.1931C38.7042 7.39442 38.5301 5.58706 38.3313 3.77103L37.7696 3.77106C35.4129 3.77229 35.4069 3.83348 35.1047 6.89317C34.9638 8.42566 34.8172 10.2328 34.6649 12.3147C34.5126 14.3965 34.3289 17.3623 34.1139 21.2121H30.331C30.5095 17.6282 30.6767 14.776 30.8328 12.6555C30.9888 10.535 31.1525 8.41968 31.3237 6.30957C31.6227 1.97809 33.0982 0 37.4445 0ZM57.3014 0H47.8427C47.4564 2.07972 47.0958 5.13569 46.7608 9.16792C46.4259 13.2001 46.1566 17.2149 45.953 21.2121H49.7323C49.9144 18.1823 50.0878 15.5119 50.2524 13.201L54.8774 13.201C54.9566 14.3693 55.1347 17.0397 55.4117 21.2121H59.1911C58.9875 17.2149 58.7182 13.2001 58.3833 9.16792C58.0483 5.13569 57.6877 2.07972 57.3014 0ZM65.458 0H74.9473C75.3348 2.08112 75.6966 5.13915 76.0326 9.1741C76.2631 11.9419 76.4627 14.7015 76.6312 17.4528L78.7286 17.4528C78.8234 18.7107 78.8708 19.9686 78.8708 21.2264C78.8708 22.4843 78.8234 23.7421 78.7286 25H74.937C75.0318 23.7421 75.0792 22.4843 75.0792 21.2264H65.3158C65.3158 22.4843 65.3632 23.7421 65.458 25H61.6665C61.5717 23.7421 61.5243 22.4843 61.5243 21.2264C61.5243 19.9686 61.5717 18.7107 61.6665 17.4528L63.7742 17.4528C63.9427 14.7015 64.1422 11.9419 64.3727 9.1741C64.7087 5.13915 65.0705 2.08112 65.458 0ZM79.1244 0H85.7392C86.0542 2.19012 86.2117 5.26981 86.2117 9.23906L86.2115 9.42879L94.1076 9.42664C94.4426 13.4589 94.7401 17.3874 95 21.2121H91.2201C90.864 16.9241 90.6513 14.2529 90.5822 13.1987L86.1597 13.1987C86.0898 15.8601 85.9497 18.5312 85.7392 21.2121H81.9593C82.2743 16.3315 82.4318 12.3405 82.4318 9.23906C82.4318 7.40953 82.377 5.58757 82.2674 3.7732L79.1244 3.77104V0ZM67.6615 17.4242C67.8894 14.15 68.096 11.3998 68.2814 9.17361C68.4304 7.38429 68.6147 5.58905 68.8343 3.78786L71.658 3.78784C71.7121 4.25221 71.7643 4.69514 71.814 5.11672L71.8155 5.12991C72.0146 6.81976 72.1732 8.16576 72.2572 9.17361L72.2785 9.43167C72.2904 9.57638 72.3095 9.81604 72.3358 10.1507L72.4168 11.2482C72.4665 11.958 72.5114 12.6068 72.5513 13.1947C72.6033 13.9594 72.6979 15.3692 72.835 17.4242L67.6615 17.4242ZM50.5898 9.18576L50.5686 9.44318L50.6159 9.44314L54.6263 9.44441L54.605 9.18576C54.5001 7.92128 54.3256 6.12569 54.0541 3.78784L51.1416 3.78786C50.9225 5.59311 50.7385 7.39241 50.5898 9.18576Z" fill="#F3E1CE"/>
</svg>
