<svg width="18" height="20" viewBox="0 0 18 20" fill="none" xmlns="http://www.w3.org/2000/svg">
<path id="icon" d="M6.13249 16.5035C5.16696 16.5035 4.38424 17.2862 4.38424 18.2517C4.38424 19.2173 5.16696 20 6.13249 20C7.09802 20 7.88074 19.2173 7.88074 18.2517C7.88074 17.2862 7.09802 16.5035 6.13249 16.5035ZM14.594 16.5035C13.6285 16.5035 12.8458 17.2862 12.8458 18.2517C12.8458 19.2173 13.6285 20 14.594 20C15.5596 20 16.3423 19.2173 16.3423 18.2517C16.3423 17.2862 15.5596 16.5035 14.594 16.5035ZM4.2738 0H0.538086V1.46853H2.91725L4.75537 14.7198L4.79605 15.0212L4.84511 15.3846H15.9227V13.9161H6.2106L5.98676 12.3077H13.8089C14.6725 12.3077 14.9864 12.2285 15.3098 12.0744C15.6332 11.9204 15.8955 11.6914 16.0919 11.3918C16.2883 11.0922 16.4091 10.7918 16.5258 9.93612L17.4612 3.07692H4.702L4.32415 0.36174L4.2738 0ZM15.7787 4.54545L15.0708 9.73771C14.991 10.3226 14.9484 10.4575 14.8637 10.5868C14.8147 10.6614 14.7588 10.7103 14.6782 10.7487L14.6635 10.7555C14.5283 10.8168 14.3785 10.8392 13.8089 10.8392H5.69962L4.82662 4.54545H15.7787Z" fill="#F3E0CF"/>
</svg>
