<svg width="16" height="18" viewBox="0 0 16 18" fill="none" xmlns="http://www.w3.org/2000/svg">
<g id="icon_cart">
<path id="icon" d="M5.34848 14.6363C4.51169 14.6363 3.83333 15.3147 3.83333 16.1515C3.83333 16.9883 4.51169 17.6666 5.34848 17.6666C6.18528 17.6666 6.86364 16.9883 6.86364 16.1515C6.86364 15.3147 6.18528 14.6363 5.34848 14.6363ZM12.6818 14.6363C11.845 14.6363 11.1667 15.3147 11.1667 16.1515C11.1667 16.9883 11.845 17.6666 12.6818 17.6666C13.5186 17.6666 14.197 16.9883 14.197 16.1515C14.197 15.3147 13.5186 14.6363 12.6818 14.6363ZM3.73762 0.333313H0.5V1.60604H2.56194L4.15498 13.0905L4.19024 13.3517L4.23276 13.6666H13.8333V12.3939H5.41618L5.22218 11H12.0014C12.7498 11 13.0219 10.9314 13.3022 10.7978C13.5824 10.6643 13.8098 10.4658 13.98 10.2062C14.1502 9.94653 14.2549 9.6862 14.356 8.94462L15.1667 2.99998H4.10873L3.78126 0.646821L3.73762 0.333313ZM13.7085 4.27271L13.095 8.77266C13.0259 9.27958 12.9889 9.39652 12.9155 9.50852C12.8731 9.57323 12.8246 9.61557 12.7547 9.64885L12.742 9.65477C12.6249 9.70788 12.495 9.72725 12.0014 9.72725H4.97333L4.21673 4.27271H13.7085Z" fill="#37363B"/>
</g>
</svg>
