<svg width="20" height="21" viewBox="0 0 20 21" fill="none" xmlns="http://www.w3.org/2000/svg">
<g id="icon_search">
<path id="Union" fill-rule="evenodd" clip-rule="evenodd" d="M13.2798 14.5299C11.982 15.6043 10.3164 16.25 8.5 16.25C4.35786 16.25 1 12.8921 1 8.75C1 4.60786 4.35786 1.25 8.5 1.25C12.6421 1.25 16 4.60786 16 8.75C16 10.5355 15.3761 12.1752 14.3344 13.4632L18.6567 17.7855L17.5961 18.8462L13.2798 14.5299ZM14.8 8.75C14.8 12.2294 11.9794 15.05 8.5 15.05C5.02061 15.05 2.2 12.2294 2.2 8.75C2.2 5.27061 5.02061 2.45 8.5 2.45C11.9794 2.45 14.8 5.27061 14.8 8.75Z" fill="#92877C"/>
</g>
</svg>
